<?xml version="1.0" encoding="UTF-8"?>
<svg id="Layer_1" xmlns="http://www.w3.org/2000/svg" version="1.1" viewBox="0 0 960 960">
  <!-- Generator: Adobe Illustrator 30.1.0, SVG Export Plug-In . SVG Version: 2.1.1 Build 136)  -->
  <defs>
    <style>
      .st0 {
        fill: #fff;
      }

      .st1 {
        fill: #00f98e;
      }
    </style>
  </defs>
  <g>
    <path class="st1" d="M480,932.1c-61,0-120.2-12-176-35.5-53.8-22.8-102.2-55.4-143.7-96.9-41.5-41.5-74.1-89.9-96.9-143.7-23.6-55.7-35.5-114.9-35.5-176s12-120.2,35.5-176c22.8-53.8,55.4-102.2,96.9-143.7,41.5-41.5,89.9-74.1,143.7-96.9,55.7-23.6,114.9-35.5,176-35.5s120.2,12,176,35.5c53.8,22.8,102.2,55.4,143.7,96.9,41.5,41.5,74.1,89.9,96.9,143.7,23.6,55.7,35.5,114.9,35.5,176s-12,120.2-35.5,176c-22.8,53.8-55.4,102.2-96.9,143.7s-89.9,74.1-143.7,96.9c-55.7,23.6-114.9,35.5-176,35.5Z"/>
    <path class="st0" d="M480,28.7c60.9,0,120,11.9,175.7,35.5,53.7,22.7,102,55.3,143.5,96.7,41.4,41.4,74,89.7,96.7,143.5,23.5,55.6,35.5,114.7,35.5,175.7s-11.9,120-35.5,175.7c-22.7,53.7-55.3,102-96.7,143.5s-89.7,74-143.5,96.7c-55.6,23.5-114.7,35.5-175.7,35.5s-120-11.9-175.7-35.5c-53.7-22.7-102-55.3-143.5-96.7-41.4-41.4-74-89.7-96.7-143.5-23.5-55.6-35.5-114.7-35.5-175.7s11.9-120,35.5-175.7c22.7-53.7,55.3-102,96.7-143.5,41.4-41.4,89.7-74,143.5-96.7,55.6-23.5,114.7-35.5,175.7-35.5M480,27.1C229.9,27.1,27.1,229.9,27.1,480s202.8,452.9,452.9,452.9,452.9-202.8,452.9-452.9S730.1,27.1,480,27.1h0Z"/>
  </g>
  <path class="st0" d="M79,716.3l28.4-5.5c22.9-4.7,31.5-15,37.1-38.6l3.2-13.4c6.3-27.6,11.8-85.2,15.8-126.2l18.1-171.9c2.4-25.2,3.2-50.5,0-78.9l-1.6-13.4c-3.2-24.4-17.3-34.7-38.6-38.6l-30-5.5v-31.5c20.5.8,63.9,1.6,97.8,1.6s129.3-.8,147.5-1.6c23.7,78.9,63.1,198.7,89.9,277.6l41,120.6,42.6-120.6c26-74.9,68.6-200.3,91.5-276,83.6,0,186.1-.8,221.6-1.6v31.5l-30,5.5c-22.9,3.9-33.1,14.2-34.7,38.6l-.8,13.4c-1.6,28.4-1.6,54.4.8,79.6l21.3,218.4c2.4,25.2,6.3,50.5,12.6,78.9l3.2,13.4c5.5,24.4,12.6,34.7,35.5,38.6l30,5.5v31.5c-35.5-.8-106.5-1.6-141.9-1.6s-117.5.8-153,1.6v-31.5l45.7-7.1c22.9-3.2,33.9-12.6,33.9-37.1v-13.4c0-28.4-2.4-53.6-4.7-78.9l-11-101.7c-1.6-11-3.2-46.5-3.9-101.7l-36.3,101.7-115.9,272.8h-75.7l-108.8-272.8-37.9-106.5-10.3,160.9c-2.4,41-3.2,97.8-1.6,126.2l.8,13.4c1.6,24.4,5.5,33.9,28.4,37.1l52,7.1v31.5c-35.5-.8-122.2-1.6-157.7-1.6s-68.6.8-104.1,1.6v-31.5Z"/>
</svg>